<?xml version="1.0" standalone="no"?>
<!DOCTYPE svg PUBLIC "-//W3C//DTD SVG 20010904//EN"
 "http://www.w3.org/TR/2001/REC-SVG-20010904/DTD/svg10.dtd">
<svg version="1.0" xmlns="http://www.w3.org/2000/svg"
 width="1555.000000pt" height="394.000000pt" viewBox="0 0 1555.000000 394.000000"
 preserveAspectRatio="xMidYMid meet">

<g transform="translate(0.000000,394.000000) scale(0.100000,-0.100000)"
fill="#000000" stroke="none">
<path d="M7392 3119 c-399 -52 -724 -321 -861 -712 -59 -170 -75 -271 -75
-487 -1 -215 11 -297 66 -470 150 -470 547 -760 1038 -760 387 0 707 167 917
480 74 109 138 273 175 443 32 149 32 457 0 604 -85 388 -282 655 -597 808
-180 87 -437 124 -663 94z m383 -384 c85 -24 202 -87 268 -146 111 -99 187
-231 234 -405 24 -89 26 -116 26 -274 0 -158 -2 -185 -26 -274 -64 -237 -184
-401 -366 -495 -119 -62 -183 -75 -351 -75 -129 0 -154 3 -225 27 -184 61
-321 179 -410 357 -158 315 -133 755 60 1025 105 148 270 248 460 279 59 9
270 -3 330 -19z"/>
<path d="M4570 1905 l0 -1195 185 0 185 0 0 480 0 480 213 0 212 -1 262 -477
261 -477 206 -3 c113 -1 206 1 206 4 0 4 -118 232 -262 507 -145 275 -264 504
-266 508 -2 3 21 20 50 37 162 91 300 274 342 452 22 93 20 249 -3 342 -61
236 -239 425 -478 506 l-78 27 -517 3 -518 3 0 -1196z m1052 787 c77 -38 130
-92 166 -171 37 -80 37 -192 0 -273 -35 -75 -98 -141 -167 -175 l-56 -28 -312
-3 -313 -3 0 346 0 346 308 -3 307 -3 67 -33z"/>
<path d="M8820 1905 l0 -1195 740 0 740 0 0 185 0 185 -555 0 -555 0 0 1010 0
1010 -185 0 -185 0 0 -1195z"/>
<path d="M10440 2915 l0 -185 280 0 280 0 0 -1010 0 -1010 185 0 185 0 0 1010
0 1010 280 0 280 0 0 185 0 185 -745 0 -745 0 0 -185z"/>
<path d="M12070 1905 l0 -1195 740 0 740 0 0 185 0 185 -555 0 -555 0 0 340 0
340 500 0 500 0 0 185 0 185 -500 0 -500 0 0 300 0 300 550 0 550 0 0 185 0
185 -735 0 -735 0 0 -1195z"/>
<path d="M13690 1905 l0 -1195 180 0 180 0 0 520 c0 286 3 520 8 520 4 0 225
-234 492 -520 l485 -519 258 0 259 -1 -199 207 c-109 115 -340 359 -514 543
-173 184 -346 368 -384 408 l-69 73 580 580 579 579 -245 0 -245 0 -502 -502
-503 -503 0 503 0 502 -180 0 -180 0 0 -1195z"/>
</g>
</svg>
